<?xml version="1.0" encoding="UTF-8"?>
<svg version="1.1" xmlns="http://www.w3.org/2000/svg" width="500" height="500">
<path d="M0 0 C165 0 330 0 500 0 C500 165 500 330 500 500 C335 500 170 500 0 500 C0 335 0 170 0 0 Z " fill="#222E37" transform="translate(0,0)"/>
<path d="M0 0 C1.33381351 -0.00351228 2.66762277 -0.00918323 4.00141907 -0.01681519 C7.58213782 -0.03091178 11.1620746 -0.01415478 14.74271822 0.00946999 C18.51315608 0.0297709 22.28356749 0.02368968 26.05404663 0.0213623 C32.38007295 0.02141566 38.70579841 0.04104368 45.03173828 0.07324219 C52.3192442 0.11015739 59.60635714 0.11891096 66.89394438 0.11194468 C73.94140783 0.1056153 80.98873823 0.11643676 88.03617477 0.13591003 C91.01914763 0.14403096 94.00205199 0.14680349 96.98503494 0.1452179 C101.15818952 0.1441667 105.33083785 0.16847502 109.50390625 0.1953125 C110.72498581 0.1923819 111.94606537 0.18945129 113.20414734 0.18643188 C127.29404032 0.3256026 138.3289313 4.07403897 148.81005859 13.61523438 C156.53982237 21.6882381 161.2214993 32.15476491 161.26972961 43.34353638 C161.28046257 45.05910988 161.28046257 45.05910988 161.29141235 46.80934143 C161.29410126 48.05513474 161.29679016 49.30092804 161.29956055 50.58447266 C161.30613174 51.90377274 161.31270294 53.22307281 161.31947327 54.58235168 C161.34045052 58.95007118 161.35087117 63.31779077 161.36083984 67.68554688 C161.36489006 69.19377536 161.36900706 70.70200366 161.37318993 72.21023178 C161.39222937 79.29930188 161.40646181 86.38836166 161.4148019 93.4774524 C161.42456353 101.63836797 161.45086 109.79901155 161.49130279 117.95983136 C161.52154919 124.28192239 161.5362789 130.60393582 161.53958291 136.92609775 C161.54192407 140.69525109 161.55076151 144.46411345 161.57604408 148.23318863 C161.59947929 151.78410604 161.60349694 155.33454406 161.5932827 158.88551903 C161.59255838 160.79304006 161.61154124 162.7005376 161.63134766 164.60795593 C161.5848427 172.38109519 160.25041481 178.50754245 157.12255859 185.61523438 C156.71005859 186.64648438 156.29755859 187.67773438 155.87255859 188.74023438 C149.05106218 199.94697848 138.45269178 207.42551219 126.12255859 211.61523438 C121.62456459 212.27724947 117.21197032 212.28048717 112.67163086 212.23046875 C111.37256805 212.23601776 110.07350525 212.24156677 108.7350769 212.24728394 C105.20375492 212.26141372 101.67322279 212.2445875 98.14197659 212.22099876 C94.42537981 212.20072986 90.70881076 212.20677766 86.99217224 212.20910645 C80.75254472 212.20905304 74.51322165 212.18939723 68.27368164 212.15722656 C61.08848252 212.12035715 53.90368192 212.11155063 46.71840054 212.11852407 C39.7713239 212.12485846 32.82438206 212.11401974 25.87733269 212.09455872 C22.93705238 212.08644328 19.99684152 212.08366426 17.05655098 212.08525085 C12.93846155 212.0863038 8.82088315 212.06196836 4.70288086 212.03515625 C3.50095596 212.03808685 2.29903107 212.04101746 1.0606842 212.04403687 C-12.18493294 211.9117591 -25.39496233 209.20566276 -35.18994141 199.74023438 C-46.41317148 187.70241502 -49.18492316 176.479852 -49.15209961 160.26782227 C-49.15721054 158.95608536 -49.16232147 157.64434845 -49.16758728 156.29286194 C-49.18089566 152.71842852 -49.1815652 149.14410136 -49.17902398 145.56964803 C-49.17794885 142.57530995 -49.18285135 139.58099291 -49.1876294 136.58665937 C-49.19869604 129.517799 -49.19917785 122.44899178 -49.19311523 115.38012695 C-49.18707532 108.1097541 -49.19939338 100.83957476 -49.2206853 93.56923491 C-49.23834812 87.30566688 -49.24429537 81.0421602 -49.24104756 74.77856821 C-49.23924224 71.04702287 -49.24179539 67.31561566 -49.2557621 63.58409309 C-49.27076729 59.41994949 -49.26132956 55.25619561 -49.24975586 51.09204102 C-49.2573996 49.87043274 -49.26504333 48.64882446 -49.2729187 47.39019775 C-49.19585345 34.80953132 -45.93097873 24.46528977 -37.50244141 14.92773438 C-36.20306641 13.78304687 -36.20306641 13.78304687 -34.87744141 12.61523438 C-34.33861328 12.06222656 -33.79978516 11.50921875 -33.24462891 10.93945312 C-23.92941682 1.83860784 -12.59530331 -0.13726403 0 0 Z " fill="#CC3A2C" transform="translate(193.87744140625,119.384765625)"/>
<path d="M0 0 C2.74728597 2.40098942 5.17482794 4.82522887 7 8 C7 9.32 7 10.64 7 12 C7.83402344 11.95359375 8.66804688 11.9071875 9.52734375 11.859375 C19.81480164 11.52942217 26.85097851 13.33509278 34.49609375 20.359375 C39.98155203 26.3435113 41.34143665 32.84308284 41.2109375 40.73828125 C40.53202484 48.01773364 35.63722061 54.84136105 30.21875 59.546875 C24.42722073 63.58195687 20.53788594 63.62947528 13 65 C13 78.86 13 92.72 13 107 C7.05921622 106.1513166 1.34500874 105.02343945 -4.5 103.71875 C-25.0317737 99.50240362 -44.62912011 103.18046002 -65 107 C-65.495 87.695 -65.495 87.695 -66 68 C-69.96 67.01 -73.92 66.02 -78 65 C-84.92060136 61.63856505 -88.2603581 57.65751535 -92 51 C-92.37640625 50.38769531 -92.7528125 49.77539062 -93.140625 49.14453125 C-95.34733907 43.6377766 -94.93024412 36.09282195 -93.2421875 30.48046875 C-92.27912625 28.49747255 -91.29345071 26.78448293 -90 25 C-89.40703125 24.18144531 -88.8140625 23.36289063 -88.203125 22.51953125 C-85.83709113 19.81369464 -83.54684588 18.14172299 -80.5 16.25 C-79.5615625 15.65703125 -78.623125 15.0640625 -77.65625 14.453125 C-73.38094745 12.11428302 -70.0959699 11.87980988 -65.25 11.9375 C-64.26515625 11.94652344 -63.2803125 11.95554688 -62.265625 11.96484375 C-61.14414063 11.98224609 -61.14414063 11.98224609 -60 12 C-59.88785156 11.2471875 -59.77570313 10.494375 -59.66015625 9.71875 C-58.30685353 4.14538496 -53.88710306 0.372755 -49.25 -2.75 C-33.35548583 -11.81975102 -15.06489781 -9.39752859 0 0 Z " fill="#DA3A28" transform="translate(277,158)"/>
<path d="M0 0 C4.11900332 2.66983573 7.25101903 5.07328929 9.80078125 9.296875 C11.79724897 12.51115696 11.79724897 12.51115696 14.11328125 12.90625 C15.61987394 13.00310239 17.12803677 13.07730915 18.63671875 13.1328125 C27.09613844 14.07274802 35.26448969 18.59099114 40.6328125 25.1171875 C46.84506427 33.3882547 47.03795684 41.42099388 46.23828125 51.421875 C45.36681068 54.79941229 44.08783551 57.47967978 42.23828125 60.421875 C41.72974609 61.35386719 41.72974609 61.35386719 41.2109375 62.3046875 C37.68947304 68.09442622 31.73440469 72.17553139 25.2155304 73.98258972 C23.22311401 74.46235148 21.23069763 74.94211324 19.23828125 75.421875 C19.24351807 76.68894287 19.24875488 77.95601074 19.25415039 79.26147461 C19.27219639 83.9447357 19.28371178 88.62799371 19.29321289 93.3112793 C19.29825403 95.34155798 19.30508682 97.37183302 19.3137207 99.40209961 C19.32579592 102.31364847 19.33151159 105.2251495 19.3359375 108.13671875 C19.34109879 109.0502562 19.34626007 109.96379364 19.35157776 110.90501404 C19.35177293 113.07762927 19.3003993 115.25014796 19.23828125 117.421875 C18.23828125 118.421875 18.23828125 118.421875 16.40234375 118.44140625 C11.89112258 118.07356822 7.5243454 117.53365182 3.125 116.4609375 C-13.49289827 112.42119736 -30.99334529 111.46932983 -47.76171875 115.421875 C-50.21926325 115.96710944 -52.67763371 116.50863128 -55.13671875 117.046875 C-56.81894531 117.43746094 -56.81894531 117.43746094 -58.53515625 117.8359375 C-61.70444261 118.41147376 -64.54901597 118.60193799 -67.76171875 118.421875 C-68.76171875 117.421875 -68.76171875 117.421875 -68.87524414 113.63647461 C-68.87508497 111.94904771 -68.86938792 110.26161595 -68.859375 108.57421875 C-68.85796005 107.6877919 -68.8565451 106.80136505 -68.85508728 105.88807678 C-68.8494709 103.04514246 -68.83691566 100.20228569 -68.82421875 97.359375 C-68.81920586 95.43685009 -68.81464259 93.51432396 -68.81054688 91.59179688 C-68.79949616 86.86845951 -68.78222058 82.14518042 -68.76171875 77.421875 C-69.38081619 77.36319244 -69.99991364 77.30450989 -70.63777161 77.24404907 C-71.44929184 77.16174042 -72.26081207 77.07943176 -73.09692383 76.99462891 C-73.90164627 76.91532135 -74.70636871 76.83601379 -75.53547668 76.75430298 C-82.06822381 75.778817 -87.50025729 70.27147671 -91.48046875 65.28515625 C-96.92127206 57.37276852 -98.62677995 49.97571268 -97.76171875 40.421875 C-95.74658996 31.39464264 -89.95514048 23.97482145 -82.375 18.7890625 C-77.88234875 16.37272511 -73.69734216 15.17310884 -68.69921875 14.234375 C-62.436288 12.84261261 -59.91119811 9.81140101 -55.98046875 4.93359375 C-42.88910003 -9.8863888 -16.01862313 -9.15349893 0 0 Z M-55.5 10.328125 C-57.61632067 13.14193727 -58.76171875 14.84507239 -58.76171875 18.421875 C-59.46296875 18.38707031 -60.16421875 18.35226563 -60.88671875 18.31640625 C-70.93988368 18.02956323 -76.97290429 20.16265084 -84.78125 26.51953125 C-87.62673364 29.25276702 -89.07993043 31.85648376 -90.76171875 35.421875 C-91.11492187 36.01226562 -91.468125 36.60265625 -91.83203125 37.2109375 C-94.19815589 42.83793979 -93.80932968 50.49190339 -91.78125 56.1640625 C-90.56888063 58.37990067 -89.2586063 60.38976312 -87.76171875 62.421875 C-86.89546875 63.783125 -86.89546875 63.783125 -86.01171875 65.171875 C-79.71908147 71.46451228 -73.56917727 72.6603833 -64.76171875 74.421875 C-64.43171875 87.291875 -64.10171875 100.161875 -63.76171875 113.421875 C-57.62895082 112.15616423 -57.62895082 112.15616423 -51.49853516 110.87915039 C-32.1649796 106.95109432 -12.03342548 106.9123239 6.96875 112.5234375 C10.31599815 113.59852103 10.31599815 113.59852103 14.23828125 113.421875 C14.23828125 99.561875 14.23828125 85.701875 14.23828125 71.421875 C19.68328125 70.431875 19.68328125 70.431875 25.23828125 69.421875 C32.75409682 65.4661826 39.16820372 59.71635493 41.91015625 51.37890625 C43.23539978 43.4747752 42.2729687 35.94982136 37.76171875 29.21875 C33.13143523 23.51018128 28.11795075 20.71509817 21.23828125 18.421875 C19.01009684 18.35250438 16.77993601 18.33730416 14.55078125 18.359375 C13.37128906 18.36839844 12.19179688 18.37742188 10.9765625 18.38671875 C9.62111328 18.40412109 9.62111328 18.40412109 8.23828125 18.421875 C8.11839844 17.66648438 7.99851562 16.91109375 7.875 16.1328125 C6.84220835 11.73552782 4.67683842 9.29443958 1.23828125 6.421875 C-16.74865003 -4.30642484 -40.24388312 -6.40217846 -55.5 10.328125 Z " fill="#F6E8E6" transform="translate(275.76171875,151.578125)"/>
<path d="M0 0 C0.33 0 0.66 0 1 0 C1.02472278 6.05061546 1.04287086 12.10120149 1.05493164 18.15185547 C1.05995973 20.21012891 1.06678306 22.26839878 1.07543945 24.32666016 C1.08757166 27.28549074 1.09324357 30.24427408 1.09765625 33.203125 C1.10281754 34.12305237 1.10797882 35.04297974 1.11329651 35.99078369 C1.11337204 36.8513739 1.11344757 37.71196411 1.11352539 38.59863281 C1.115746 39.35364075 1.11796661 40.10864868 1.12025452 40.88653564 C0.99775975 43.0393723 0.59128419 44.93080737 0 47 C1.485 47.495 1.485 47.495 3 48 C2.25951416 48.01458252 1.51902832 48.02916504 0.75610352 48.04418945 C-2.64225413 48.11927222 -6.0396934 48.21573281 -9.4375 48.3125 C-11.18450195 48.34633789 -11.18450195 48.34633789 -12.96679688 48.38085938 C-26.33755886 48.79516468 -34.73228236 52.29096247 -44 62 C-47 61 -47 61 -49.1875 58.75 C-57.37797444 50.74153611 -66.05866823 48.77291272 -77.25 48.4375 C-79.02617514 48.37752857 -80.80223117 48.3138861 -82.578125 48.24609375 C-83.35575195 48.22216553 -84.13337891 48.1982373 -84.93457031 48.17358398 C-87 48 -87 48 -90 47 C-89.83734146 46.42509827 -89.67468292 45.85019653 -89.50709534 45.25787354 C-89.00888413 43.03955716 -88.87929765 41.14194304 -88.88647461 38.87402344 C-88.88655014 38.07349548 -88.88662567 37.27296753 -88.88670349 36.44818115 C-88.89186478 35.59387512 -88.89702606 34.73956909 -88.90234375 33.859375 C-88.9037587 32.97719299 -88.90517365 32.09501099 -88.90663147 31.18609619 C-88.91221999 28.37402935 -88.92477039 25.5620427 -88.9375 22.75 C-88.94251648 20.84114698 -88.94707913 18.93229272 -88.95117188 17.0234375 C-88.96218566 12.34892753 -88.97944242 7.67447735 -89 3 C-89.99 2.67 -90.98 2.34 -92 2 C-90.68 2 -89.36 2 -88 2 C-87.67 15.2 -87.34 28.4 -87 42 C-78.15592823 41.2957066 -78.15592823 41.2957066 -69.875 39.5 C-50.16147476 33.91543194 -28.99225031 36.57035013 -9.50341797 41.54101562 C-6.44058614 42.18033715 -6.44058614 42.18033715 -1 42 C-0.67 28.14 -0.34 14.28 0 0 Z " fill="#BD3836" transform="translate(295,227)"/>
<path d="M0 0 C1.63183228 -0.04459351 1.63183228 -0.04459351 3.29663086 -0.09008789 C12.77066472 -0.1583498 21.4479016 1.71627735 28.875 7.9375 C29.59945312 8.52789062 30.32390625 9.11828125 31.0703125 9.7265625 C32.75 11.3125 32.75 11.3125 33.75 13.3125 C36.89051252 11.90973774 39.11749893 10.21634137 41.625 7.875 C49.81874941 0.56295276 57.40722559 0.11841858 67.9375 0.125 C69.52498047 0.1240332 69.52498047 0.1240332 71.14453125 0.12304688 C80.44929034 0.18470492 89.54451336 1.01071401 98.75 2.3125 C98.75 4.9525 98.75 7.5925 98.75 10.3125 C96.7500797 10.33993793 94.75004523 10.35909055 92.75 10.375 C91.63625 10.38660156 90.5225 10.39820313 89.375 10.41015625 C86.21016721 10.32489675 83.19405648 9.97324626 80.06201172 9.55053711 C75.15985855 9.04582757 70.23602833 9.08590358 65.3125 9.0625 C64.23162109 9.041875 63.15074219 9.02125 62.03710938 9 C52.26842323 8.95260795 44.85706162 10.37878135 37.75 17.3125 C36.76 18.7975 36.76 18.7975 35.75 20.3125 C35.09 20.3125 34.43 20.3125 33.75 20.3125 C33.04875 19.405 32.3475 18.4975 31.625 17.5625 C27.86945634 12.84856834 22.57655661 10.5099202 16.75 9.3125 C14.80766648 9.22042981 12.86248201 9.18182988 10.91796875 9.1796875 C9.22510742 9.17775391 9.22510742 9.17775391 7.49804688 9.17578125 C6.32306641 9.17964844 5.14808594 9.18351562 3.9375 9.1875 C2.19243164 9.18169922 2.19243164 9.18169922 0.41210938 9.17578125 C-5.25938256 9.18223713 -10.63951479 9.41735977 -16.25 10.3125 C-18.56170807 10.37650078 -20.87502904 10.39883991 -23.1875 10.375 C-24.33089844 10.36597656 -25.47429687 10.35695313 -26.65234375 10.34765625 C-27.50957031 10.33605469 -28.36679688 10.32445312 -29.25 10.3125 C-29.34765625 4.16015625 -29.34765625 4.16015625 -29.25 2.3125 C-24.76723487 -2.17026513 -5.9664145 0.08522844 0 0 Z " fill="#F7F1F1" transform="translate(215.25,274.6875)"/>
<path d="M0 0 C1.15798096 -0.00902344 2.31596191 -0.01804687 3.5090332 -0.02734375 C10.81067892 -0.0016243 16.13743989 0.8274208 22.5625 4.375 C29.73654189 7.59847152 38.19702639 7.45099665 45.70703125 5.4140625 C49.3306617 4.00280965 52.38591885 2.40938743 55.625 0.25 C57.97143555 -0.00878906 57.97143555 -0.00878906 60.76171875 -0.015625 C61.80344238 -0.01949219 62.84516602 -0.02335937 63.91845703 -0.02734375 C65.5985083 -0.01380859 65.5985083 -0.01380859 67.3125 0 C68.45831543 0.00386719 69.60413086 0.00773437 70.78466797 0.01171875 C82.45196029 0.12684072 94.02358602 1.06043587 105.625 2.25 C105.625 3.9 105.625 5.55 105.625 7.25 C103.45840626 7.27738672 101.29170825 7.29656832 99.125 7.3125 C97.31515625 7.32990234 97.31515625 7.32990234 95.46875 7.34765625 C92.24932369 7.26586188 89.20553536 6.92444797 86.02197266 6.49243164 C80.55391135 5.93938775 75.05346734 5.98042054 69.5625 5.9375 C68.32177734 5.90849609 67.08105469 5.87949219 65.80273438 5.84960938 C58.77306497 5.80071387 54.3471891 6.07905442 48.625 10.25 C40.04076496 13.68369402 30.14732534 13.32623702 21.52734375 10.19921875 C19.625 9.25 19.625 9.25 17.88916016 7.71118164 C14.93211984 5.80284799 12.9981149 5.89162897 9.49609375 5.921875 C8.29533203 5.92703125 7.09457031 5.9321875 5.85742188 5.9375 C3.97893555 5.9684375 3.97893555 5.9684375 2.0625 6 C0.22461914 6.00773437 0.22461914 6.00773437 -1.65039062 6.015625 C-8.15768629 6.07109476 -14.56816138 6.37232529 -21.04125977 7.03173828 C-23.88906027 7.29807719 -26.70344714 7.34963056 -29.5625 7.3125 C-30.48417969 7.30347656 -31.40585938 7.29445313 -32.35546875 7.28515625 C-33.02191406 7.27355469 -33.68835938 7.26195312 -34.375 7.25 C-34.375 5.6 -34.375 3.95 -34.375 2.25 C-22.90890703 0.7856871 -11.56404826 0.03759393 0 0 Z " fill="#F6ECEC" transform="translate(214.375,288.75)"/>
<path d="M0 0 C1.13308594 -0.020625 2.26617187 -0.04125 3.43359375 -0.0625 C12.19796998 -0.10312283 20.03230528 0.58754009 26.6875 6.8125 C27.34878906 7.41191406 28.01007813 8.01132812 28.69140625 8.62890625 C30.125 10.25 30.125 10.25 30.125 12.25 C30.805625 11.528125 31.48625 10.80625 32.1875 10.0625 C39.85978143 2.45505475 46.81994866 0.01425303 57.56665039 -0.02734375 C59.14240845 -0.01380859 59.14240845 -0.01380859 60.75 0 C61.83853271 0.00386719 62.92706543 0.00773437 64.04858398 0.01171875 C74.47824913 0.12079506 84.77310646 1.03084955 95.125 2.25 C95.125 2.58 95.125 2.91 95.125 3.25 C92.85423158 3.27699725 90.58337179 3.29639453 88.3125 3.3125 C86.41564453 3.32990234 86.41564453 3.32990234 84.48046875 3.34765625 C81.125 3.25 81.125 3.25 78.125 2.25 C78.62 3.735 78.62 3.735 79.125 5.25 C81.435 5.58 83.745 5.91 86.125 6.25 C86.125 6.58 86.125 6.91 86.125 7.25 C84.61317139 7.21072388 84.61317139 7.21072388 83.07080078 7.1706543 C79.28766581 7.07931759 75.50462566 7.02245239 71.72070312 6.9753418 C70.09130397 6.95038558 68.46201458 6.91640746 66.83300781 6.87280273 C56.9698602 6.61563478 49.68369279 6.76903581 41.125 12.25 C34.17737179 14.56587607 24.75292722 14.45145286 18.0625 11.375 C17.43214844 11.02695312 16.80179688 10.67890625 16.15234375 10.3203125 C10.45918625 7.31467636 5.05109074 6.86619008 -1.25 6.625 C-2.49716797 6.56699219 -2.49716797 6.56699219 -3.76953125 6.5078125 C-5.80435156 6.41425754 -7.83964416 6.33107287 -9.875 6.25 C-9.875 5.92 -9.875 5.59 -9.875 5.25 C-8.81539062 5.20101563 -7.75578125 5.15203125 -6.6640625 5.1015625 C-5.27601503 5.02653291 -3.88799549 4.95098515 -2.5 4.875 C-1.45199219 4.82859375 -1.45199219 4.82859375 -0.3828125 4.78125 C3.82685827 4.65500502 3.82685827 4.65500502 7.125 2.25 C-1.785 2.25 -10.695 2.25 -19.875 2.25 C-19.875 1.92 -19.875 1.59 -19.875 1.25 C-13.26249553 0.06166586 -6.70583137 0.03030884 0 0 Z " fill="#B53839" transform="translate(218.875,282.75)"/>
<path d="M0 0 C3.12813702 2.10967381 4.31095599 3.2946653 5.6875 6.8125 C6.40513357 11.60558349 6.15434169 14.89548953 3.9375 19.25 C1.24132446 22.32064437 -0.65994281 23.5814107 -4.71484375 24.1484375 C-8.9171892 24.21318859 -11.58758514 24.22026461 -15.3125 22.125 C-18.94036071 17.93028606 -19.72605387 14.16622528 -19.5625 8.73828125 C-19.03909295 4.7064113 -17.17213796 2.52477145 -14.125 0 C-9.10335316 -2.12025089 -4.98558636 -1.78728568 0 0 Z " fill="#F4F5F5" transform="translate(354.3125,356.1875)"/>
<path d="M0 0 C3.48385172 2.27207721 5.40871756 4.53826493 7.875 7.875 C7.875 8.205 7.875 8.535 7.875 8.875 C1.34130934 9.24483155 1.34130934 9.24483155 -0.9375 7.4375 C-1.329375 6.921875 -1.72125 6.40625 -2.125 5.875 C-4.9048816 4.4850592 -7.0436326 4.69011796 -10.125 4.875 C-13.46765205 6.08206879 -14.07204566 6.79556849 -16.125 9.875 C-16.80893028 14.56707985 -16.66500686 18.64771167 -14.75 23 C-10.80552951 25.81747892 -6.83019647 25.62123316 -2.125 24.875 C1.39860997 22.93508639 1.39860997 22.93508639 2.875 17.875 C-0.755 17.875 -4.385 17.875 -8.125 17.875 C-8.125 16.555 -8.125 15.235 -8.125 13.875 C-2.515 13.875 3.095 13.875 8.875 13.875 C8.875 20.46007466 7.94106598 22.98924963 3.875 27.875 C-0.41389564 31.06673629 -4.51791037 31.39090871 -9.72265625 31.234375 C-13.27471899 30.70300952 -15.42700451 29.17816688 -18.125 26.875 C-18.7025 26.42125 -19.28 25.9675 -19.875 25.5 C-23.18391283 21.19841332 -23.75812005 16.12085181 -23.125 10.875 C-21.22616529 6.16765627 -18.724871 2.83879084 -14.25 0.375 C-9.23073439 -1.7478097 -5.15844739 -1.85704106 0 0 Z " fill="#F1F2F2" transform="translate(253.125,349.125)"/>
<path d="M0 0 C3.01194152 1.64606106 5.09652062 3.14972616 6.75 6.25 C6.75 6.91 6.75 7.57 6.75 8.25 C2.95583599 8.60294549 1.32521661 8.7219726 -1.6875 6.25 C-4.17819774 3.96406557 -4.17819774 3.96406557 -7.75 3.75 C-11.78761333 4.3268019 -13.39650217 5.39650217 -16.25 8.25 C-17.78597454 11.32194908 -17.4765038 13.85244293 -17.25 17.25 C-15.67275698 21.23066095 -14.83999089 22.85667274 -11.25 25.25 C-7.07414703 25.71398366 -5.05652831 25.87948551 -1.6875 23.25 C-0.883125 22.59 -0.07875 21.93 0.75 21.25 C4.0625 21 4.0625 21 6.75 21.25 C5.83651532 24.90393872 4.81236171 26.20090674 1.8125 28.5625 C-3.01279327 31.0204782 -7.97520774 31.1498175 -13.25 30.25 C-17.02146789 28.58290188 -19.44159938 26.13663294 -22.1875 23.125 C-23.88827863 18.52289311 -23.89049425 14.08928988 -23.25 9.25 C-21.06473658 4.79853749 -18.3105479 2.06114855 -14.25 -0.75 C-9.09756613 -2.46747796 -4.89717236 -2.29977708 0 0 Z " fill="#F1F2F2" transform="translate(166.25,349.75)"/>
<path d="M0 0 C1.65 0 3.3 0 5 0 C5.05607422 1.78857422 5.05607422 1.78857422 5.11328125 3.61328125 C5.17894032 5.179719 5.24538768 6.74612384 5.3125 8.3125 C5.33505859 9.09818359 5.35761719 9.88386719 5.38085938 10.69335938 C5.41630859 11.45068359 5.45175781 12.20800781 5.48828125 12.98828125 C5.51446533 13.68477783 5.54064941 14.38127441 5.56762695 15.09887695 C6.12387207 17.5446594 7.03983092 18.47248482 9 20 C11.54230847 20.41679297 11.54230847 20.41679297 14 20 C16.35358251 17.64641749 16.27871904 17.07031606 16.4140625 13.8671875 C16.45273438 13.06152344 16.49140625 12.25585938 16.53125 11.42578125 C16.57765625 10.16314453 16.57765625 10.16314453 16.625 8.875 C16.66367188 8.02550781 16.70234375 7.17601562 16.7421875 6.30078125 C16.83656494 4.20088316 16.91937586 2.10047109 17 0 C18.98 0 20.96 0 23 0 C23 8.25 23 16.5 23 25 C21.35 25 19.7 25 18 25 C17.67 24.34 17.34 23.68 17 23 C16.01 23.66 15.02 24.32 14 25 C9.65133171 25.68873936 6.11969282 25.81177729 2.5 23.1875 C0.32664625 20.01802578 -0.12422473 17.51568704 -0.09765625 13.76953125 C-0.09282227 12.56586914 -0.09282227 12.56586914 -0.08789062 11.33789062 C-0.07951172 10.50451172 -0.07113281 9.67113281 -0.0625 8.8125 C-0.05798828 7.96751953 -0.05347656 7.12253906 -0.04882812 6.25195312 C-0.03705403 4.16793845 -0.0191189 2.08396023 0 0 Z " fill="#EEEFF0" transform="translate(179,355)"/>
<path d="M0 0 C1.98 0 3.96 0 6 0 C6.04898437 1.27617187 6.09796875 2.55234375 6.1484375 3.8671875 C6.22346191 5.53648072 6.29900988 7.20575046 6.375 8.875 C6.4059375 9.71675781 6.436875 10.55851562 6.46875 11.42578125 C6.50742187 12.23144531 6.54609375 13.03710938 6.5859375 13.8671875 C6.6173584 14.61081543 6.6487793 15.35444336 6.68115234 16.12060547 C6.85419551 18.24010974 6.85419551 18.24010974 9 20 C12.56592619 19.83582968 12.56592619 19.83582968 16 19 C17.6498007 15.70039859 17.38258361 12.00872116 17.5625 8.375 C17.60568359 7.57320313 17.64886719 6.77140625 17.69335938 5.9453125 C17.79951457 3.9637489 17.90026855 1.98189729 18 0 C19.65 0 21.3 0 23 0 C23 8.25 23 16.5 23 25 C20.33333333 25 17.66666667 25 15 25 C14.31164062 25.05800781 13.62328125 25.11601562 12.9140625 25.17578125 C8.48285045 25.44044409 6.63676937 25.49084306 3 22.6875 C0.52848086 19.36639616 -0.12798666 17.02222585 -0.09765625 12.98828125 C-0.09443359 12.23095703 -0.09121094 11.47363281 -0.08789062 10.69335938 C-0.07951172 9.90767578 -0.07113281 9.12199219 -0.0625 8.3125 C-0.05798828 7.51521484 -0.05347656 6.71792969 -0.04882812 5.89648438 C-0.0370585 3.93095743 -0.01912348 1.96546915 0 0 Z " fill="#EEEFF0" transform="translate(266,355)"/>
<path d="M0 0 C2.9375 1.1875 2.9375 1.1875 5 3 C5.8125 5.6875 5.8125 5.6875 6 8 C3.6875 8.1875 3.6875 8.1875 1 8 C0.505 7.484375 0.01 6.96875 -0.5 6.4375 C-0.995 5.963125 -1.49 5.48875 -2 5 C-4.65466049 5.23043864 -4.65466049 5.23043864 -7 6 C-6.67 6.99 -6.34 7.98 -6 9 C-3.74212109 10.17382124 -3.74212109 10.17382124 -1.0625 11.0625 C3.80717489 12.80717489 3.80717489 12.80717489 6 15 C6.44935048 18.44502033 6.37778761 20.34745776 4.625 23.375 C0.55642295 25.89364294 -3.34556984 25.75314404 -8 25 C-11.16025526 23.19413985 -12.57721965 22.17077636 -13.8125 18.75 C-13.9053125 17.88375 -13.9053125 17.88375 -14 17 C-11.125 16.8125 -11.125 16.8125 -8 17 C-7.34 17.99 -6.68 18.98 -6 20 C-2.41642759 20.25015873 -2.41642759 20.25015873 1 20 C0.67 19.01 0.34 18.02 0 17 C-2.22550395 15.86186843 -2.22550395 15.86186843 -4.875 15 C-8.28268938 13.80780546 -10.74920755 12.89698771 -13 10 C-13.5 7.0625 -13.5 7.0625 -13 4 C-9.28649649 -0.40978541 -5.42568801 -0.89880084 0 0 Z " fill="#F2F3F3" transform="translate(308,355)"/>
<path d="M0 0 C0.33 0 0.66 0 1 0 C1.33 12.87 1.66 25.74 2 39 C3.97829072 37.02170928 3.25503932 33.17672973 3.31640625 30.46484375 C3.33718735 29.71159317 3.35796844 28.95834259 3.37937927 28.18226624 C3.44495425 25.7674401 3.50379621 23.35250202 3.5625 20.9375 C3.6056777 19.30402471 3.64929173 17.6705609 3.69335938 16.03710938 C3.80064362 12.02485536 3.90188821 8.01248836 4 4 C4.33 4 4.66 4 5 4 C5.02464574 9.96313166 5.042834 15.92623395 5.05493164 21.8894043 C5.05997278 23.91968298 5.06680557 25.94995802 5.07543945 27.98022461 C5.08751467 30.89177347 5.09323034 33.8032745 5.09765625 36.71484375 C5.10281754 37.6283812 5.10797882 38.54191864 5.11329651 39.48313904 C5.11349168 41.65575427 5.06211805 43.82827296 5 46 C4.67 46.33 4.34 46.66 4 47 C-3.7309125 46.88547464 -11.20521352 45.2362719 -18.6875 43.4375 C-20.18700195 43.08655273 -20.18700195 43.08655273 -21.71679688 42.72851562 C-24.14617428 42.15894867 -26.57375133 41.58272348 -29 41 C-29.33 39.68 -29.66 38.36 -30 37 C-35.94 37 -41.88 37 -48 37 C-48 36.67 -48 36.34 -48 36 C-30.91409445 35.52293749 -16.59903167 37.47299136 0 42 C0 28.14 0 14.28 0 0 Z " fill="#F3DBDB" transform="translate(290,223)"/>
<path d="M0 0 C1.65 0 3.3 0 5 0 C5 1.98 5 3.96 5 6 C6.98 6 8.96 6 11 6 C11 7.65 11 9.3 11 11 C9.02 11 7.04 11 5 11 C5.33 15.95 5.66 20.9 6 26 C7.65 26.33 9.3 26.66 11 27 C11 28.32 11 29.64 11 31 C3.4749964 31.37008214 3.4749964 31.37008214 1.390625 29.74609375 C-0.33764951 27.5760412 -0.35134597 26.51326066 -0.29296875 23.76953125 C-0.28330078 22.96708984 -0.27363281 22.16464844 -0.26367188 21.33789062 C-0.23853516 20.50451172 -0.21339844 19.67113281 -0.1875 18.8125 C-0.17396484 17.96751953 -0.16042969 17.12253906 -0.14648438 16.25195312 C-0.11115799 14.16769616 -0.05735139 12.08376723 0 10 C-0.99 10 -1.98 10 -3 10 C-3 8.68 -3 7.36 -3 6 C-2.01 6 -1.02 6 0 6 C0 4.02 0 2.04 0 0 Z " fill="#F3F4F5" transform="translate(321,349)"/>
<path d="M0 0 C1.25039062 0.00322266 2.50078125 0.00644531 3.7890625 0.00976562 C5.74199219 0.02233398 5.74199219 0.02233398 7.734375 0.03515625 C9.71050781 0.04192383 9.71050781 0.04192383 11.7265625 0.04882812 C14.97921241 0.06061309 18.23177084 0.07706614 21.484375 0.09765625 C21.979375 2.07765625 21.979375 2.07765625 22.484375 4.09765625 C21.91106445 4.11747559 21.33775391 4.13729492 20.74707031 4.15771484 C8.40662205 4.60569341 -3.4140278 5.37849004 -15.453125 8.28515625 C-19.64289114 9.25669622 -22.63102468 9.03995641 -26.515625 7.09765625 C-26.515625 6.43765625 -26.515625 5.77765625 -26.515625 5.09765625 C-21.18229167 3.76432292 -15.84895833 2.43098958 -10.515625 1.09765625 C-9.90976563 0.91460937 -9.30390625 0.7315625 -8.6796875 0.54296875 C-5.75872197 -0.05809636 -2.98123928 -0.01355109 0 0 Z " fill="#F5E6E5" transform="translate(238.515625,259.90234375)"/>
<path d="M0 0 C1.98 0 3.96 0 6 0 C6 10.89 6 21.78 6 33 C4.02 33 2.04 33 0 33 C0 22.11 0 11.22 0 0 Z " fill="#E2E4E5" transform="translate(208,347)"/>
<path d="M0 0 C2.5 1.4375 2.5 1.4375 4 4 C4.3025691 8.19058199 3.95947874 11.74529703 1.375 15.125 C-2.11834663 16.41202244 -4.44328292 15.97001375 -8 15 C-10.81972931 12.63506574 -10.97850831 11.1719335 -11.4375 7.5 C-11 4 -11 4 -9.4375 1.5625 C-6.05782196 -0.60396028 -3.94016013 -0.56288002 0 0 Z " fill="#2B383F" transform="translate(351,360)"/>
<path d="M0 0 C1.588125 -0.061875 3.17625 -0.12375 4.8125 -0.1875 C6.15248047 -0.23970703 6.15248047 -0.23970703 7.51953125 -0.29296875 C10 0 10 0 11.80078125 1.328125 C13.66667962 3.9294426 13.38089201 5.88938193 13 9 C11.875 11.375 11.875 11.375 10 13 C6.87376745 13.31900332 4.82883747 13.41441874 2 12 C2 14.31 2 16.62 2 19 C1.34 19 0.68 19 0 19 C0 12.73 0 6.46 0 0 Z " fill="#29363D" transform="translate(258,394)"/>
<path d="M0 0 C7.95575409 -0.14268634 15.76620042 0.28208675 23.6875 1 C24.78255859 1.09539062 25.87761719 1.19078125 27.00585938 1.2890625 C29.67097457 1.52182365 32.33563186 1.7588633 35 2 C35 3.65 35 5.3 35 7 C32.83340626 7.02738672 30.66670825 7.04656832 28.5 7.0625 C26.69015625 7.07990234 26.69015625 7.07990234 24.84375 7.09765625 C21.58151869 7.01477436 18.46854254 6.69807428 15.24023438 6.25610352 C10.67849616 5.73460576 6.0854883 5.62103989 1.5 5.4375 C0.48679687 5.39431641 -0.52640625 5.35113281 -1.5703125 5.30664062 C-4.0467679 5.20150808 -6.52330749 5.09936163 -9 5 C-9 4.67 -9 4.34 -9 4 C-2.73 4 3.54 4 10 4 C10 3.01 10 2.02 10 1 C6.7 1 3.4 1 0 1 C0 0.67 0 0.34 0 0 Z " fill="#F2E0E0" transform="translate(285,289)"/>
<path d="M0 0 C7 0 7 0 10 2 C7.35261084 3.4606285 6.10551666 4 3 4 C3.01571045 5.0194873 3.0314209 6.03897461 3.04760742 7.08935547 C3.10183027 10.86499152 3.13632184 14.64059304 3.16479492 18.41650391 C3.17989911 20.05197941 3.20038389 21.68741429 3.22631836 23.32275391 C3.26263145 25.67100024 3.27970932 28.01871205 3.29296875 30.3671875 C3.30845261 31.10057343 3.32393646 31.83395935 3.33988953 32.58956909 C3.34057617 34.65185547 3.34057617 34.65185547 3 38 C2.01 38.66 1.02 39.32 0 40 C0 26.8 0 13.6 0 0 Z " fill="#F9F8F9" transform="translate(291,223)"/>
<path d="M0 0 C0 0.33 0 0.66 0 1 C-0.969375 1.309375 -1.93875 1.61875 -2.9375 1.9375 C-5.84065792 2.69523342 -5.84065792 2.69523342 -7 4 C-8.7063121 4.22822088 -10.420922 4.39505895 -12.13671875 4.53515625 C-13.18923828 4.62216797 -14.24175781 4.70917969 -15.32617188 4.79882812 C-16.43541016 4.88583984 -17.54464844 4.97285156 -18.6875 5.0625 C-20.32235352 5.19881836 -20.32235352 5.19881836 -21.99023438 5.33789062 C-27.01254107 5.74444375 -31.95823934 6.04807011 -37 6 C-36.34 5.34 -35.68 4.68 -35 4 C-35.99 3.34 -36.98 2.68 -38 2 C-27.90052358 -3.04973821 -10.96553122 -0.08645797 0 0 Z " fill="#B62D2D" transform="translate(231,284)"/>
<path d="M0 0 C8 0 8 0 11 2 C11.34406131 5.16536405 11.41617943 7.23700438 9.875 10.0625 C8.69460607 12.10070585 8.69460607 12.10070585 9.875 14.75 C10.24625 15.4925 10.6175 16.235 11 17 C10.34 17 9.68 17 9 17 C6 12.61538462 6 12.61538462 6 10 C4.68 10 3.36 10 2 10 C2 12.31 2 14.62 2 17 C1.34 17 0.68 17 0 17 C0 11.39 0 5.78 0 0 Z " fill="#686E72" transform="translate(208,390)"/>
<path d="M0 0 C1.65 0 3.3 0 5 0 C5 8.25 5 16.5 5 25 C3.35 25 1.7 25 0 25 C0 16.75 0 8.5 0 0 Z " fill="#F8F9F9" transform="translate(220,355)"/>
<path d="M0 0 C0.99108765 0.02320313 0.99108765 0.02320313 2.00219727 0.046875 C7.31840242 0.20188523 12.60299704 0.61783608 17.875 1.3125 C17.875 2.3025 17.875 3.2925 17.875 4.3125 C16.58464844 4.36148437 15.29429687 4.41046875 13.96484375 4.4609375 C12.24737653 4.53601803 10.52992959 4.61156354 8.8125 4.6875 C7.96494141 4.7184375 7.11738281 4.749375 6.24414062 4.78125 C1.12315247 5.01851586 -3.25288194 5.72160431 -8.125 7.3125 C-9.78746041 7.66621498 -11.45274271 8.00845322 -13.125 8.3125 C-10.2707306 1.65253807 -7.24003623 -0.21556576 0 0 Z " fill="#F7F0F1" transform="translate(277.125,288.6875)"/>
<path d="M0 0 C0 0.33 0 0.66 0 1 C-12.375 1.495 -12.375 1.495 -25 2 C-25 2.66 -25 3.32 -25 4 C-25.71027344 4.13277344 -26.42054688 4.26554687 -27.15234375 4.40234375 C-28.07144531 4.57894531 -28.99054688 4.75554687 -29.9375 4.9375 C-30.85402344 5.11152344 -31.77054688 5.28554688 -32.71484375 5.46484375 C-34.95289844 5.77714988 -34.95289844 5.77714988 -36 7 C-37.85287502 7.07226502 -39.70833878 7.0838122 -41.5625 7.0625 C-42.57441406 7.05347656 -43.58632812 7.04445313 -44.62890625 7.03515625 C-45.41136719 7.02355469 -46.19382813 7.01195312 -47 7 C-47 5.35 -47 3.7 -47 2 C-31.30238263 -0.00471282 -15.81238101 -0.23221978 0 0 Z " fill="#F2E2E1" transform="translate(227,289)"/>
<path d="M0 0 C2 2 2 2 2 7 C-1.3 7 -4.6 7 -8 7 C-7.67 7.99 -7.34 8.98 -7 10 C-4.69 10.33 -2.38 10.66 0 11 C0 10.34 0 9.68 0 9 C0.66 9 1.32 9 2 9 C1.34 10.32 0.68 11.64 0 13 C-6.34507042 13.35915493 -6.34507042 13.35915493 -8.9375 11.9375 C-10.6140629 8.88023824 -10.36528977 6.4093712 -10 3 C-7.77611809 -1.05531408 -4.20231132 -0.3820283 0 0 Z " fill="#929495" transform="translate(232,394)"/>
<path d="M0 0 C3.5625 0.3125 3.5625 0.3125 5.5 1.5625 C6.5625 3.3125 6.5625 3.3125 6.5625 7.3125 C2.9325 7.3125 -0.6975 7.3125 -4.4375 7.3125 C-3.4475 8.6325 -2.4575 9.9525 -1.4375 11.3125 C-0.674375 11.1475 0.08875 10.9825 0.875 10.8125 C3.5625 10.3125 3.5625 10.3125 6.5625 10.3125 C4.69035559 12.80869254 3.7729846 13.28115123 0.625 13.75 C-2.4375 13.3125 -2.4375 13.3125 -4.875 11.75 C-6.4375 9.3125 -6.4375 9.3125 -6.3125 5.6875 C-5.14951423 1.20169775 -4.66151968 0.42377452 0 0 Z " fill="#939596" transform="translate(279.4375,393.6875)"/>
<path d="M0 0 C1.3293457 0.00483398 1.3293457 0.00483398 2.68554688 0.00976562 C4.05356445 0.02233398 4.05356445 0.02233398 5.44921875 0.03515625 C6.38056641 0.03966797 7.31191406 0.04417969 8.27148438 0.04882812 C10.55996248 0.06056391 12.84830683 0.07698262 15.13671875 0.09765625 C15.46671875 1.41765625 15.79671875 2.73765625 16.13671875 4.09765625 C7.22671875 4.09765625 -1.68328125 4.09765625 -10.86328125 4.09765625 C-10.53328125 3.10765625 -10.20328125 2.11765625 -9.86328125 1.09765625 C-6.51236354 0.34402573 -3.43218313 -0.02214312 0 0 Z " fill="#FAF7F7" transform="translate(244.86328125,259.90234375)"/>
<path d="M0 0 C0.66 0.33 1.32 0.66 2 1 C1.01 2.32 0.02 3.64 -1 5 C-0.34 5.33 0.32 5.66 1 6 C-6.7629761 8.94397288 -13.74447081 9.34937193 -22 9 C-22 8.67 -22 8.34 -22 8 C-20.02 8 -18.04 8 -16 8 C-16 7.34 -16 6.68 -16 6 C-17.32 5.34 -18.64 4.68 -20 4 C-18.83984375 3.94392578 -18.83984375 3.94392578 -17.65625 3.88671875 C-11.13294447 3.47497546 -6.02925854 2.45636459 0 0 Z " fill="#F3E2E3" transform="translate(265,292)"/>
<path d="M0 0 C15.47999439 -0.25045417 30.61979457 0.1886614 46 2 C46 2.33 46 2.66 46 3 C43.72923158 3.02699725 41.45837179 3.04639453 39.1875 3.0625 C37.29064453 3.07990234 37.29064453 3.07990234 35.35546875 3.09765625 C32 3 32 3 29 2 C29.33 2.99 29.66 3.98 30 5 C32.31 5.33 34.62 5.66 37 6 C37 6.33 37 6.66 37 7 C22.15 6.505 22.15 6.505 7 6 C7 5.67 7 5.34 7 5 C13.6 5 20.2 5 27 5 C27 4.01 27 3.02 27 2 C18.09 1.67 9.18 1.34 0 1 C0 0.67 0 0.34 0 0 Z " fill="#B65152" transform="translate(268,283)"/>
<path d="M0 0 C1.588125 -0.061875 3.17625 -0.12375 4.8125 -0.1875 C6.15248047 -0.23970703 6.15248047 -0.23970703 7.51953125 -0.29296875 C10 0 10 0 11.80078125 1.328125 C13.66667962 3.9294426 13.38089201 5.88938193 13 9 C11.875 11.375 11.875 11.375 10 13 C6.87376745 13.31900332 4.82883747 13.41441874 2 12 C2 14.31 2 16.62 2 19 C1.34 19 0.68 19 0 19 C0 12.73 0 6.46 0 0 Z M2 3 C1.5 6.5 1.5 6.5 2 10 C4.76745084 12.30075262 4.76745084 12.30075262 7.625 11.75 C8.40875 11.5025 9.1925 11.255 10 11 C11.39431504 8.21136993 11.25660094 6.07921132 11 3 C6.98990901 0.32660601 6.01009099 0.32660601 2 3 Z " fill="#939596" transform="translate(258,394)"/>
<path d="M0 0 C0.33 0 0.66 0 1 0 C1.87890625 6.15234375 1.87890625 6.15234375 2 8 C1.67 8.33 1.34 8.66 1 9 C0.87630675 10.9935143 0.8220361 12.9913647 0.79467773 14.98852539 C0.77473251 16.26977798 0.75478729 17.55103058 0.73423767 18.87110901 C0.71725203 20.27995684 0.70037327 21.68880595 0.68359375 23.09765625 C0.66303085 24.53112905 0.64203456 25.96459569 0.62062073 27.39805603 C0.56533141 31.1775312 0.51595255 34.9570617 0.46777344 38.7366333 C0.41760835 42.59074855 0.36189629 46.44478309 0.30664062 50.29882812 C0.19897521 57.86581714 0.09754903 65.4328731 0 73 C-0.33 73 -0.66 73 -1 73 C-1.02317125 64.07260443 -1.04093952 55.14521922 -1.05181217 46.21780014 C-1.05703051 42.07243538 -1.06410917 37.9270912 -1.07543945 33.78173828 C-1.08630554 29.78117928 -1.09228475 25.78064007 -1.09487724 21.78006744 C-1.09672477 20.25385476 -1.1003325 18.72764316 -1.10573006 17.2014389 C-1.11298985 15.06363077 -1.11398885 12.92590441 -1.11352539 10.78808594 C-1.115746 9.5711908 -1.11796661 8.35429565 -1.12025452 7.1005249 C-1.02047988 4.52803333 -0.76354775 2.44095129 0 0 Z " fill="#D04A36" transform="translate(146,153)"/>
<path d="M0 0 C0.66 0.33 1.32 0.66 2 1 C0.625 3 0.625 3 -1 5 C-1.66 5 -2.32 5 -3 5 C-3.2475 5.515625 -3.495 6.03125 -3.75 6.5625 C-5 9 -5 9 -7.0625 12.0625 C-9.59144325 16.47204278 -9.45826849 20.4670925 -9.25 25.4375 C-9.23195312 26.26443359 -9.21390625 27.09136719 -9.1953125 27.94335938 C-9.1486214 29.96274933 -9.07689393 31.98153445 -9 34 C-13.09604397 29.61060541 -12.48024117 25.20998775 -12.35546875 19.48828125 C-11.66889719 12.75082629 -8.52374253 7.94784339 -4 3 C-1.75 1.1875 -1.75 1.1875 0 0 Z " fill="#D15648" transform="translate(195,175)"/>
<path d="M0 0 C5.61 0.33 11.22 0.66 17 1 C17 2.66666667 17 4.33333333 17 6 C10.84765625 6.09765625 10.84765625 6.09765625 9 6 C8.67 5.67 8.34 5.34 8 5 C5.67182036 4.63239269 3.3381615 4.29758419 1 4 C0.67 2.68 0.34 1.36 0 0 Z " fill="#B63030" transform="translate(297,285)"/>
<path d="M0 0 C0.66 1.32 1.32 2.64 2 4 C1.443125 3.649375 0.88625 3.29875 0.3125 2.9375 C-2.53886783 1.78154007 -4.08517222 2.19032562 -7 3 C-7 5.31 -7 7.62 -7 10 C-3.65747276 10.07427838 -1.1964086 10.06546953 2 9 C1.34 10.32 0.68 11.64 0 13 C-6.34507042 13.35915493 -6.34507042 13.35915493 -8.9375 11.9375 C-10.6140629 8.88023824 -10.36528977 6.4093712 -10 3 C-7.7672032 -1.07157064 -4.21152194 -0.23838803 0 0 Z " fill="#8D9091" transform="translate(247,394)"/>
<path d="M0 0 C2.906521 1.3029232 4.80835408 2.70873381 7 5 C7.66 5.33 8.32 5.66 9 6 C8.34 7.65 7.68 9.3 7 11 C6.34 11 5.68 11 5 11 C3.71569138 9.52304509 2.43419292 8.04193862 1.21875 6.5078125 C-0.06784671 4.86186905 -0.06784671 4.86186905 -2 3 C-1.34 3 -0.68 3 0 3 C0 2.01 0 1.02 0 0 Z " fill="#F3E6E4" transform="translate(244,284)"/>
<path d="M0 0 C0.33 0 0.66 0 1 0 C1 2.64 1 5.28 1 8 C5.95514502 7.12527407 5.95514502 7.12527407 9.4375 3.875 C9.623125 3.25625 9.80875 2.6375 10 2 C10.25280899 6.5505618 10.25280899 6.5505618 8.875 9 C7.69689905 11.09393753 7.69689905 11.09393753 8.875 13.75 C9.24625 14.4925 9.6175 15.235 10 16 C9.34 16 8.68 16 8 16 C5 11.61538462 5 11.61538462 5 9 C3.68 9 2.36 9 1 9 C1 11.31 1 13.62 1 16 C0.67 16 0.34 16 0 16 C0 10.72 0 5.44 0 0 Z " fill="#9B9C9D" transform="translate(209,391)"/>
<path d="M0 0 C0.59039062 0.21527344 1.18078125 0.43054688 1.7890625 0.65234375 C1.04462891 1.1628125 1.04462891 1.1628125 0.28515625 1.68359375 C-6.15457136 6.27816222 -12.98432722 11.73550719 -15.2109375 19.65234375 C-15.8709375 19.65234375 -16.5309375 19.65234375 -17.2109375 19.65234375 C-15.20146172 11.61444063 -9.92460336 6.01093848 -3.921875 0.5859375 C-2.2109375 -0.34765625 -2.2109375 -0.34765625 0 0 Z " fill="#C95136" transform="translate(166.2109375,127.34765625)"/>
<path d="M0 0 C-0.35401103 3.18609925 -0.83027036 4.79066678 -2.875 7.3125 C-5 9 -5 9 -8 9 C-7.70100785 5.41209425 -7.23013399 4.21833224 -4.5625 1.6875 C-2 0 -2 0 0 0 Z " fill="#F7EDED" transform="translate(316,211)"/>
<path d="M0 0 C0.33 0 0.66 0 1 0 C1 1.98 1 3.96 1 6 C0.01 5.67 -0.98 5.34 -2 5 C-2 5.66 -2 6.32 -2 7 C-4.31 7 -6.62 7 -9 7 C-9.33 5.68 -9.66 4.36 -10 3 C-6.7 3 -3.4 3 0 3 C0 2.01 0 1.02 0 0 Z " fill="#2F3B42" transform="translate(234,398)"/>
<path d="M0 0 C3.63 0 7.26 0 11 0 C11 0.66 11 1.32 11 2 C9.3125 3.6875 9.3125 3.6875 7 5 C4.375 4.9375 4.375 4.9375 2 4 C1.34 2.68 0.68 1.36 0 0 Z " fill="#2F3B42" transform="translate(275,401)"/>
<path d="M0 0 C2.0625 0.4375 2.0625 0.4375 4 1 C4.33 2.65 4.66 4.3 5 6 C2.625 6.625 2.625 6.625 0 7 C-0.66 6.34 -1.32 5.68 -2 5 C-1.46428571 1.46428571 -1.46428571 1.46428571 0 0 Z " fill="#DEE0E1" transform="translate(221,345)"/>
<path d="M0 0 C2.4375 0.1875 2.4375 0.1875 5 1 C5.66 2.32 6.32 3.64 7 5 C4.03 5 1.06 5 -2 5 C-1 1 -1 1 0 0 Z " fill="#434D53" transform="translate(226,395)"/>
<path d="M0 0 C1.67542976 0.28604898 3.34385343 0.61781233 5 1 C5.33 2.32 5.66 3.64 6 5 C3.03 5 0.06 5 -3 5 C-1 1 -1 1 0 0 Z " fill="#333E45" transform="translate(278,395)"/>
<path d="M0 0 C1.98 0 3.96 0 6 0 C6 1.98 6 3.96 6 6 C4.02 6 2.04 6 0 6 C0 4.02 0 2.04 0 0 Z " fill="#243139" transform="translate(211,392)"/>
<path d="M0 0 C0.66 0.33 1.32 0.66 2 1 C1.34 1.66 0.68 2.32 0 3 C-0.33 3.845625 -0.66 4.69125 -1 5.5625 C-2 8 -2 8 -4 9 C-4.33 8.01 -4.66 7.02 -5 6 C-5.99 6 -6.98 6 -8 6 C-5.36 4.02 -2.72 2.04 0 0 Z " fill="#F5E2DC" transform="translate(196,169)"/>
<path d="M0 0 C0 0.33 0 0.66 0 1 C-1.85625 1.4021875 -1.85625 1.4021875 -3.75 1.8125 C-7.18747578 2.65223486 -9.18332391 3.86321124 -12 6 C-14.75 6.1875 -14.75 6.1875 -17 6 C-11.6729593 0.6729593 -7.26914131 -0.51011518 0 0 Z " fill="#B44A4E" transform="translate(278,294)"/>
<path d="M0 0 C2 1 2 1 2.8515625 2.9609375 C3.10679687 3.75757813 3.36203125 4.55421875 3.625 5.375 C3.88539063 6.16648437 4.14578125 6.95796875 4.4140625 7.7734375 C5 10 5 10 5 13 C1.88980259 11.44490129 1.30588394 9.14599312 0 6 C-0.1875 2.625 -0.1875 2.625 0 0 Z " fill="#9D2F32" transform="translate(147,296)"/>
<path d="M0 0 C1.32 0.66 2.64 1.32 4 2 C3.34 3.32 2.68 4.64 2 6 C0.68 5.01 -0.64 4.02 -2 3 C-1.34 3 -0.68 3 0 3 C0 2.01 0 1.02 0 0 Z " fill="#F2DCDC" transform="translate(244,284)"/>
<path d="M0 0 C1.65 0.33 3.3 0.66 5 1 C5 1.66 5 2.32 5 3 C2.69 3 0.38 3 -2 3 C-1.34 2.01 -0.68 1.02 0 0 Z " fill="#222F37" transform="translate(227,396)"/>
</svg>
